<svg width="120" height="120" viewBox="0 0 120 120" fill="none" xmlns="http://www.w3.org/2000/svg">
<path d="M53.01 63.68C52.4033 64.8067 48.7633 72.13 42.09 85.65C37.67 94.6633 33.2067 101.467 28.7 106.06C24.28 110.74 20.9 113.08 18.56 113.08C17.52 113.08 17 112.603 17 111.65L17.39 110.09C18.3433 107.49 21.29 101.38 26.23 91.76C31.2567 82.14 35.9367 73.6033 40.27 66.15C44.3433 59.0433 48.33 52.1967 52.23 45.61C56.13 38.9367 59.0333 34.04 60.94 30.92L63.8 26.24C63.9733 25.98 64.19 25.6333 64.45 25.2C64.71 24.7667 65.2733 23.9867 66.14 22.86C67.0933 21.7333 68.0467 20.78 69 20C69.9533 19.1333 71.08 18.3533 72.38 17.66C73.68 16.9667 74.9367 16.62 76.15 16.62C77.2767 16.62 77.84 16.9233 77.84 17.53C77.84 18.31 77.32 19.4367 76.28 20.91C69.78 32.0033 62.8467 44.6133 55.48 58.74C55.3933 58.9133 55.35 59.0867 55.35 59.26C55.35 59.52 55.5233 59.65 55.87 59.65C61.33 59.65 66.3567 58.61 70.95 56.53C75.63 54.45 79.4 51.7633 82.26 48.47C85.2067 45.09 87.46 41.4933 89.02 37.68C90.6667 33.8667 91.49 30.0967 91.49 26.37C91.49 21.0833 89.4967 17.0967 85.51 14.41C81.5233 11.7233 76.8433 10.38 71.47 10.38C67.3967 10.38 63.41 10.9867 59.51 12.2C55.6967 13.4133 52.3167 15.4933 49.37 18.44C46.51 21.3867 45.08 24.8967 45.08 28.97C45.08 31.3967 45.73 33.7367 47.03 35.99C47.4633 36.8567 47.68 37.4633 47.68 37.81C47.68 38.33 47.3333 38.59 46.64 38.59C46.4667 38.59 46.12 38.5033 45.6 38.33C45.34 38.2433 44.9933 38.07 44.56 37.81C44.1267 37.55 43.3467 37.03 42.22 36.25C41.0933 35.47 40.0967 34.6467 39.23 33.78C38.3633 32.9133 37.5833 31.7867 36.89 30.4C36.1967 28.9267 35.85 27.4533 35.85 25.98C35.85 20.6067 39.1433 16.1 45.73 12.46C52.4033 8.82 59.9433 7 68.35 7C72.4233 7 76.28 7.34667 79.92 8.04C83.6467 8.73334 87.2433 9.86 90.71 11.42C94.2633 12.8933 97.08 15.06 99.16 17.92C101.24 20.78 102.28 24.16 102.28 28.06C102.28 33.8667 100.763 39.11 97.73 43.79C94.7833 48.3833 90.8833 52.0667 86.03 54.84C81.2633 57.5267 76.15 59.6067 70.69 61.08C65.23 62.4667 59.7267 63.16 54.18 63.16C54.0933 63.0733 53.9633 63.03 53.79 63.03C53.4433 63.03 53.1833 63.2467 53.01 63.68Z" fill="white"/>
</svg>
